<?xml version="1.0" encoding="UTF-8"?>
<svg version="1.1" xmlns="http://www.w3.org/2000/svg" width="500" height="500">
<path d="M0 0 C4.72583654 3.29024749 8.77199185 5.3750674 14.32348633 6.90332031 C15.72166396 7.30990957 17.11877595 7.72017829 18.51489258 8.13378906 C19.21888184 8.34052246 19.92287109 8.54725586 20.64819336 8.76025391 C32.60266705 12.39881223 43.7470135 17.55801635 54.76098633 23.40332031 C55.48044434 23.77972656 56.19990234 24.15613281 56.94116211 24.54394531 C85.93705278 39.78154934 111.85264145 61.3030099 131.76098633 87.40332031 C132.60666941 88.43985532 133.45585462 89.47353939 134.30786133 90.50488281 C158.04340307 119.48580132 172.11633461 150.48221305 169.76098633 188.40332031 C169.02224242 195.21302376 167.54629593 201.79892324 165.76098633 208.40332031 C165.56263184 209.15629395 165.36427734 209.90926758 165.15991211 210.68505859 C161.28968573 224.8943623 154.77924204 238.93783458 145.56567383 250.48925781 C142.63579093 254.2928163 141.45668368 257.77420926 140.38598633 262.40332031 C132.26336199 292.95825653 109.05872448 317.3179453 82.27661133 332.92285156 C45.60465781 353.51783308 -2.77799288 349.122417 -41.84204102 338.38232422 C-76.45193433 328.40778978 -106.09400814 313.57194131 -134.39135742 291.12597656 C-141.80482762 285.28849311 -148.27056667 281.21791992 -157.19213867 278.00878906 C-186.64226095 266.94656846 -213.74943858 243.7607291 -236.23901367 222.40332031 C-237.1903418 221.50613281 -238.14166992 220.60894531 -239.12182617 219.68457031 C-260.96770331 198.52332181 -278.61338015 169.5745905 -279.23901367 138.40332031 C-279.24622954 105.85251927 -270.10660819 75.11972072 -248.23901367 50.40332031 C-246.75401367 49.41332031 -246.75401367 49.41332031 -245.23901367 48.40332031 C-244.3178166 46.54896386 -244.3178166 46.54896386 -243.69604492 44.36035156 C-243.43122314 43.54099121 -243.16640137 42.72163086 -242.89355469 41.87744141 C-242.61568115 40.99910645 -242.33780762 40.12077148 -242.05151367 39.21582031 C-237.5354117 25.70263561 -231.7295127 14.17281238 -222.23901367 3.40332031 C-221.57901367 2.6234375 -220.91901367 1.84355469 -220.23901367 1.04003906 C-216.50021669 -3.30485196 -212.60519421 -7.23079278 -208.21948242 -10.92089844 C-206.92399624 -12.01707905 -205.65391349 -13.14419313 -204.41479492 -14.30371094 C-146.20755642 -68.36200581 -56.80148535 -40.50612956 0 0 Z " fill="#93F0A5" transform="translate(304.239013671875,100.5966796875)"/>
<path d="M0 0 C1.09820068 0.00563965 2.19640137 0.0112793 3.32788086 0.01708984 C11.10237409 0.13365242 18.16805051 0.77155017 25.5625 3.3125 C26.50246826 3.62646729 26.50246826 3.62646729 27.46142578 3.94677734 C42.71915486 9.10077476 57.49839637 16.27215193 68.5625 28.3125 C69.34238281 29.07433594 70.12226563 29.83617187 70.92578125 30.62109375 C89.36057594 49.43823974 97.77253859 74.15469278 97.74804688 100.13427734 C97.47023982 119.82616766 91.35990236 139.44022886 79.5625 155.3125 C79.13066406 155.94542969 78.69882812 156.57835937 78.25390625 157.23046875 C74.41160882 162.84429272 69.86452617 167.07087907 64.5625 171.3125 C63.4178125 172.488125 63.4178125 172.488125 62.25 173.6875 C50.78189348 184.88890637 35.88231805 190.47304188 20.5625 194.3125 C19.551875 194.66828125 18.54125 195.0240625 17.5 195.390625 C11.88441031 196.9983951 5.97870301 196.69521492 0.1875 196.6875 C-1.05878174 196.68588867 -2.30506348 196.68427734 -3.58911133 196.68261719 C-16.83963093 196.50739803 -28.54890798 194.32728173 -40.4375 188.3125 C-41.97667326 187.64009667 -43.51840298 186.97351812 -45.0625 186.3125 C-49.023101 184.55842012 -52.71736008 182.52875357 -56.4375 180.3125 C-56.664375 180.869375 -56.89125 181.42625 -57.125 182 C-61.61462459 189.91029095 -69.51815775 193.70041735 -77.8125 196.375 C-78.59761963 196.63031494 -79.38273926 196.88562988 -80.19165039 197.14868164 C-91.47856953 200.70455457 -102.5725439 203.39892237 -114.4375 201.3125 C-114.7675 200.3225 -115.0975 199.3325 -115.4375 198.3125 C-114.9425 197.3225 -114.9425 197.3225 -114.4375 196.3125 C-113.7775 196.3125 -113.1175 196.3125 -112.4375 196.3125 C-112.1075 195.3225 -111.7775 194.3325 -111.4375 193.3125 C-109.73046875 191.6640625 -109.73046875 191.6640625 -107.625 189.9375 C-102.16056979 185.28442526 -97.88655879 180.89405609 -97.1590271 173.47135925 C-97.14570343 172.43433365 -97.13237976 171.39730804 -97.11865234 170.32885742 C-97.09878265 169.14801071 -97.07891296 167.967164 -97.05844116 166.75053406 C-97.04688995 165.48578751 -97.03533875 164.22104095 -97.0234375 162.91796875 C-97.00407135 161.61547684 -96.9847052 160.31298492 -96.9647522 158.97102356 C-96.91355482 155.5204265 -96.87386324 152.06979056 -96.83660889 148.61901855 C-96.79649112 145.09292112 -96.74553952 141.56698116 -96.6953125 138.04101562 C-96.59768125 131.13157105 -96.5180678 124.22224897 -96.4375 117.3125 C-83.2375 117.3125 -70.0375 117.3125 -56.4375 117.3125 C-54.4575 121.2725 -52.4775 125.2325 -50.4375 129.3125 C-40.75647217 143.19472859 -28.35269149 152.79257545 -11.4921875 155.99902344 C4.7724433 158.48046188 20.86486312 154.80084581 34.375 145.34375 C40.75799018 140.41774671 45.44137923 135.23009558 49.5625 128.3125 C49.94921875 127.67957031 50.3359375 127.04664063 50.734375 126.39453125 C58.3638542 112.63212454 60.13675547 96.30911381 55.86328125 81.24511719 C53.29331058 73.21225912 49.74118268 66.94063784 44.3203125 60.5 C42.5625 58.3125 42.5625 58.3125 42.5625 56.3125 C41.82515625 56.05082031 41.0878125 55.78914063 40.328125 55.51953125 C37.53315917 54.29969447 35.643091 52.94647508 33.3125 51 C19.88237281 40.34469248 6.31740023 38.98635304 -10.4375 40.3125 C-22.55073929 41.98984874 -34.03176795 47.85825104 -42.1328125 57.02734375 C-43.4375 58.3125 -43.4375 58.3125 -45.4375 58.3125 C-45.4375 58.9725 -45.4375 59.6325 -45.4375 60.3125 C-46.0975 60.3125 -46.7575 60.3125 -47.4375 60.3125 C-47.623125 61.17875 -47.623125 61.17875 -47.8125 62.0625 C-48.44398824 64.33585767 -49.32608191 66.2378529 -50.4375 68.3125 C-51.0975 68.3125 -51.7575 68.3125 -52.4375 68.3125 C-52.64246094 68.95058594 -52.84742188 69.58867187 -53.05859375 70.24609375 C-53.32800781 71.07238281 -53.59742188 71.89867187 -53.875 72.75 C-54.14183594 73.57371094 -54.40867188 74.39742188 -54.68359375 75.24609375 C-55.4375 77.3125 -55.4375 77.3125 -56.4375 78.3125 C-59.3218382 78.40115208 -62.18212158 78.42771296 -65.06640625 78.41015625 C-66.36275246 78.40803383 -66.36275246 78.40803383 -67.68528748 78.40586853 C-70.45689292 78.40025239 -73.2284188 78.38769719 -76 78.375 C-77.8743478 78.36998708 -79.74869685 78.36542381 -81.62304688 78.36132812 C-86.22789544 78.35027772 -90.83268421 78.3330023 -95.4375 78.3125 C-95.05665245 72.16188078 -94.65362764 66.6769251 -92.0625 61 C-91.64226562 60.05511719 -91.22203125 59.11023438 -90.7890625 58.13671875 C-90.34304687 57.20472656 -89.89703125 56.27273437 -89.4375 55.3125 C-89.00824219 54.38050781 -88.57898438 53.44851562 -88.13671875 52.48828125 C-85.93140175 48.36661982 -83.32624688 44.62169324 -80.625 40.8125 C-80.11646484 40.07902344 -79.60792969 39.34554687 -79.08398438 38.58984375 C-75.87703521 34.04564963 -72.57505195 30.04278934 -68.4375 26.3125 C-67.7775 26.3125 -67.1175 26.3125 -66.4375 26.3125 C-66.4375 25.6525 -66.4375 24.9925 -66.4375 24.3125 C-64.11518567 22.17453035 -61.45640584 20.4361588 -58.875 18.625 C-58.10792725 18.08625244 -57.34085449 17.54750488 -56.55053711 16.99243164 C-39.38746696 5.22695353 -20.80146286 -0.11271015 0 0 Z " fill="#FCFEFD" transform="translate(256.4375,149.6875)"/>
<path d="M0 0 C6.91960172 0.4957535 12.62984251 2.01342827 19.0625 4.5625 C19.9800708 4.92037598 20.8976416 5.27825195 21.84301758 5.64697266 C30.16565846 8.95401106 38.1124607 12.77261621 46 17 C46.71220703 17.37350586 47.42441406 17.74701172 48.15820312 18.13183594 C77.16409228 33.37071296 103.08546162 54.89156976 123 81 C123.84568308 82.036535 124.69486829 83.07021908 125.546875 84.1015625 C149.28241674 113.08248101 163.35534828 144.07889274 161 182 C160.26125609 188.80970345 158.78530961 195.39560293 157 202 C156.80164551 202.75297363 156.60329102 203.50594727 156.39892578 204.28173828 C152.56040264 218.37464545 146.05229232 234.1795194 136 245 C135.34 245 134.68 245 134 245 C134.02356567 243.55101318 134.02356567 243.55101318 134.04760742 242.07275391 C134.69275021 216.84491439 134.69275021 216.84491439 131 192 C130.70198486 190.72817871 130.70198486 190.72817871 130.39794922 189.43066406 C128.7806675 182.56660546 126.95559521 175.77501882 125 169 C124.72591309 168.04883301 124.45182617 167.09766602 124.16943359 166.11767578 C115.87949144 138.02957022 102.85156885 110.28465502 85 87 C83.99969825 85.64605622 82.99967893 84.29190371 82 82.9375 C76.79765338 76.04333334 71.38788412 69.33611483 65.65625 62.875 C63.58350806 60.52849969 61.56655299 58.13704395 59.5546875 55.73828125 C57.4617539 53.39819218 55.22963517 51.2082811 53 49 C51.50981102 47.51102256 50.02029562 46.02137085 48.53125 44.53125 C47.71269531 43.71269531 46.89414062 42.89414063 46.05078125 42.05078125 C43.5234375 39.5234375 40.99609375 36.99609375 38.46875 34.46875 C37.68564453 33.68604736 36.90253906 32.90334473 36.09570312 32.09692383 C34.45665054 30.45691653 32.82134712 28.81316203 31.1875 27.16796875 C24.26398955 20.30627536 16.85004437 14.21702852 9.078125 8.359375 C5.97206013 5.97858416 2.95480782 3.5655517 0 1 C0 0.67 0 0.34 0 0 Z " fill="#32B3C1" transform="translate(313,107)"/>
<path d="M0 0 C0.33 0 0.66 0 1 0 C1.87701292 8.6239604 -1.0553629 14.44101837 -5 22 C-5.39445312 22.79535156 -5.78890625 23.59070313 -6.1953125 24.41015625 C-20.02005915 51.04454577 -46.54911714 72.94479088 -75 82 C-125.48402143 96.23908297 -187.1142615 83.82144351 -232.34619141 58.69677734 C-244.84649825 51.63757833 -256.52828786 43.61208091 -268 35 C-268.75603516 34.4337793 -269.51207031 33.86755859 -270.29101562 33.28417969 C-272.19500677 31.85744006 -274.09798568 30.4293733 -276 29 C-275.505 27.515 -275.505 27.515 -275 26 C-269.9762515 26.89131022 -265.90698815 27.91207174 -261.44140625 30.39453125 C-255.74457779 33.30986161 -250.04635397 34.68602216 -243.8125 36 C-242.69206299 36.24782227 -241.57162598 36.49564453 -240.41723633 36.75097656 C-236.94777166 37.5150834 -233.47470429 38.26011662 -230 39 C-226.73689965 39.69903282 -223.4739845 40.3988713 -220.21166992 41.1015625 C-218.2416987 41.52396046 -216.27054792 41.94090578 -214.2980957 42.3515625 C-212.96524536 42.63386719 -212.96524536 42.63386719 -211.60546875 42.921875 C-210.44760864 43.16309082 -210.44760864 43.16309082 -209.26635742 43.40917969 C-207 44 -207 44 -204.54980469 45.03442383 C-201.78944414 46.07973463 -199.53821074 46.35461152 -196.59765625 46.52734375 C-195.55512695 46.5958252 -194.51259766 46.66430664 -193.43847656 46.73486328 C-192.3244043 46.8017334 -191.21033203 46.86860352 -190.0625 46.9375 C-182.725966 47.42168294 -175.49587995 47.99319908 -168.24291992 49.21044922 C-157.07695867 51.06725092 -146.04076032 51.30123836 -134.75 51.3125 C-133.95460815 51.31590393 -133.15921631 51.31930786 -132.33972168 51.32281494 C-113.67876093 52.12514343 -113.67876093 52.12514343 -96 48 C-94.46823517 47.72467514 -92.92878948 47.49130985 -91.38671875 47.28125 C-90.46826172 47.15363281 -89.54980469 47.02601563 -88.60351562 46.89453125 C-87.16008789 46.69923828 -87.16008789 46.69923828 -85.6875 46.5 C-83.79539518 46.24087785 -81.90346174 45.9805006 -80.01171875 45.71875 C-79.17084717 45.60466797 -78.32997559 45.49058594 -77.46362305 45.37304688 C-74.9561689 44.993363 -72.48252919 44.51662771 -70 44 C-70 43.34 -70 42.68 -70 42 C-67.41958904 40.99183944 -64.83613056 39.9932889 -62.25 39 C-61.52039063 38.71382813 -60.79078125 38.42765625 -60.0390625 38.1328125 C-59.33007812 37.86210937 -58.62109375 37.59140625 -57.890625 37.3125 C-57.24125977 37.06113281 -56.59189453 36.80976563 -55.92285156 36.55078125 C-54 36 -54 36 -50 36 C-50 35.34 -50 34.68 -50 34 C-49.40574219 33.78085937 -48.81148437 33.56171875 -48.19921875 33.3359375 C-42.27229638 31.06840577 -36.83394045 28.36102438 -31.34765625 25.171875 C-29 24 -29 24 -26 24 C-26 23.34 -26 22.68 -26 22 C-25.01 21.67 -24.02 21.34 -23 21 C-21.31237149 19.3545622 -19.6459651 17.68711423 -18 16 C-16.515 15.01 -16.515 15.01 -15 14 C-14.67 13.01 -14.34 12.02 -14 11 C-12.68 11 -11.36 11 -10 11 C-9.67 10.01 -9.34 9.02 -9 8 C-7.5188917 6.71207974 -6.03341511 5.42730312 -4.49609375 4.20703125 C-2.89405337 2.95829452 -2.89405337 2.95829452 -1.1875 1.1875 C-0.795625 0.795625 -0.40375 0.40375 0 0 Z " fill="#BFFE74" transform="translate(442,360)"/>
<path d="M0 0 C0.66257812 0.5878125 1.32515625 1.175625 2.0078125 1.78125 C2.0078125 2.44125 2.0078125 3.10125 2.0078125 3.78125 C-14.8587176 1.02233962 -14.8587176 1.02233962 -22.83203125 -1.58984375 C-26.19196983 -2.56805371 -29.51330785 -2.89663151 -32.9921875 -3.21875 C-32.9921875 -3.87875 -32.9921875 -4.53875 -32.9921875 -5.21875 C-33.9615625 -5.19554687 -34.9309375 -5.17234375 -35.9296875 -5.1484375 C-43.76239218 -5.02111657 -51.25566025 -5.36954596 -59.0234375 -6.43481445 C-76.84105142 -8.85689635 -95.03458213 -8.71067001 -112.9921875 -9.21875 C-112.9921875 -8.55875 -112.9921875 -7.89875 -112.9921875 -7.21875 C-113.59353516 -7.15929199 -114.19488281 -7.09983398 -114.81445312 -7.03857422 C-135.63390216 -4.90233824 -155.62828884 -0.88071366 -175.06396484 7.00488281 C-178.62505629 8.4386978 -182.21516311 9.79559996 -185.8046875 11.15625 C-186.81982422 11.55070312 -186.81982422 11.55070312 -187.85546875 11.953125 C-190.72560714 13.04707119 -192.89123668 13.78125 -195.9921875 13.78125 C-196.3221875 14.77125 -196.6521875 15.76125 -196.9921875 16.78125 C-199.31198131 17.81226947 -201.64648665 18.81061517 -203.9921875 19.78125 C-205.0115994 20.76145375 -206.01465106 21.75928008 -206.9921875 22.78125 C-208.64933207 23.47124573 -210.31794486 24.13384456 -211.9921875 24.78125 C-219.62107581 28.1020602 -226.13728535 32.09380309 -232.5390625 37.35351562 C-235.56202197 39.81397504 -238.28401629 41.55202198 -241.9921875 42.78125 C-240.42491971 22.09331512 -226.04669288 3.37659817 -210.9296875 -9.90625 C-209.94355469 -10.73382813 -209.94355469 -10.73382813 -208.9375 -11.578125 C-207.65428898 -12.66035116 -206.39765569 -13.77500723 -205.171875 -14.921875 C-147.21262452 -68.75850097 -56.16962669 -41.6505848 0 0 Z " fill="#BFFE74" transform="translate(304.9921875,101.21875)"/>
<path d="M0 0 C-0.07001221 0.69552979 -0.14002441 1.39105957 -0.2121582 2.10766602 C-1.07949666 11.79409571 -1.18616023 21.43632073 -1.18530273 31.15600586 C-1.18749331 33.92902906 -1.20572907 36.70165588 -1.22460938 39.47460938 C-1.25766259 49.49948163 -0.83057054 59.11139452 1 69 C1.20794189 70.1758667 1.41588379 71.3517334 1.63012695 72.56323242 C5.6021008 94.38654536 10.61231412 114.97311283 20.11645508 135.08959961 C20.94051688 136.87138564 21.70330306 138.68115758 22.4609375 140.4921875 C27.1849141 151.2590174 33.43765564 161.43334337 39.875 171.25 C40.52359985 172.256073 40.52359985 172.256073 41.18530273 173.2824707 C50.02961932 186.4945457 61.44792464 197.77396859 72.67480469 208.93554688 C74.90019386 211.15007086 77.11450136 213.37528402 79.328125 215.6015625 C80.75717059 217.02928862 82.18683532 218.45639537 83.6171875 219.8828125 C84.59702103 220.86871872 84.59702103 220.86871872 85.59664917 221.87454224 C89.18111347 225.4226467 92.69624096 228.36344056 97 231 C92.24403796 232.73647917 89.0888885 230.72273464 84.66796875 228.7734375 C56.2021497 215.2991448 30.73673356 195.59212484 8 174 C7.04867187 173.1028125 6.09734375 172.205625 5.1171875 171.28125 C-16.72868963 150.12000149 -34.37436648 121.17127019 -35 90 C-35.00721587 57.44919895 -25.86759452 26.71640041 -4 2 C-1 0 -1 0 0 0 Z " fill="#32B3C0" transform="translate(60,149)"/>
<path d="M0 0 C2.5 2.125 2.5 2.125 4 5 C4 8.88582276 3.53567796 11.16434238 1.4375 14.4375 C-2.2596485 16.80746699 -4.64359598 16.48404489 -9 16 C-11.11939783 14.43370137 -11.87867964 13.41694274 -12.6171875 10.87890625 C-13.31310345 4.6262069 -13.31310345 4.6262069 -11.75 1.5 C-7.97803895 -1.73310947 -4.57857704 -1.12456278 0 0 Z " fill="#F4FDF6" transform="translate(236,246)"/>
<path d="M0 0 C3.7 1.4 3.7 1.4 5 4 C5.50455052 8.28454373 5.71978996 11.81954446 3.4375 15.5625 C0.02983728 17.57214724 -2.10418263 17.54678139 -6 17 C-8.9375 15.5 -8.9375 15.5 -11 13 C-11.59842983 9.51947705 -11.60902074 6.21804148 -10 3 C-9.34 3 -8.68 3 -8 3 C-8 2.34 -8 1.68 -8 1 C-5.2201184 -0.3899408 -3.0813674 -0.18488204 0 0 Z " fill="#F9FDF9" transform="translate(284,245)"/>
<path d="M0 0 C3.80470451 0.7133821 5.41196019 1.67868421 8 4.5625 C9.0625 8 9.0625 8 9 11.5625 C7.23358828 14.36439446 5.96950178 16.07774911 3 17.5625 C-1.0130324 18.09757099 -2.53928033 17.89301628 -5.875 15.5 C-8 12.5625 -8 12.5625 -8.625 9.0625 C-7.67703424 3.75389177 -5.38444917 1.00958422 0 0 Z " fill="#F5FDF6" transform="translate(256,244.4375)"/>
<path d="M0 0 C0.85552963 0.02311249 1.71105927 0.04622498 2.59251404 0.07003784 C4.40923245 0.12297228 6.22568555 0.18580648 8.04174805 0.2578125 C10.74702318 0.36475358 13.45180864 0.44318324 16.15820312 0.515625 C25.99412461 0.81309386 35.74387481 1.45798972 45.52210999 2.57522583 C50.47051179 3.12993082 55.2656562 3.32358588 60.24609375 3.2421875 C61.23609375 3.2421875 62.22609375 3.2421875 63.24609375 3.2421875 C63.24609375 3.9021875 63.24609375 4.5621875 63.24609375 5.2421875 C64.42365234 5.22478516 64.42365234 5.22478516 65.625 5.20703125 C80.11276988 5.08259642 80.11276988 5.08259642 86.24609375 8.2421875 C90.36467122 9.50087957 93.91235482 10.2421875 98.24609375 10.2421875 C98.57609375 9.2521875 98.90609375 8.2621875 99.24609375 7.2421875 C98.25609375 7.2421875 97.26609375 7.2421875 96.24609375 7.2421875 C95.75109375 5.7571875 95.75109375 5.7571875 95.24609375 4.2421875 C99.02700992 5.58531935 101.90261291 7.27183434 105.05859375 9.7421875 C106.24388672 10.65484375 106.24388672 10.65484375 107.453125 11.5859375 C108.04480469 12.1325 108.63648438 12.6790625 109.24609375 13.2421875 C109.24609375 13.9021875 109.24609375 14.5621875 109.24609375 15.2421875 C92.37956365 12.48327712 92.37956365 12.48327712 84.40625 9.87109375 C81.04631142 8.89288379 77.7249734 8.56430599 74.24609375 8.2421875 C74.24609375 7.5821875 74.24609375 6.9221875 74.24609375 6.2421875 C73.27671875 6.26539062 72.30734375 6.28859375 71.30859375 6.3125 C63.47588907 6.43982093 55.982621 6.09139154 48.21484375 5.02612305 C30.39722983 2.60404115 12.20369912 2.75026749 -5.75390625 2.2421875 C-5.75390625 2.9021875 -5.75390625 3.5621875 -5.75390625 4.2421875 C-8.39390625 4.2421875 -11.03390625 4.2421875 -13.75390625 4.2421875 C-9.30033925 -0.28431577 -5.97444381 -0.26790627 0 0 Z " fill="#B5FC86" transform="translate(197.75390625,89.7578125)"/>
<path d="M0 0 C5.0689608 0.89933175 9.17077311 1.95067856 13.6875 4.4375 C19.78492428 7.69331265 26.24504556 8.80279626 33 10 C33 10.33 33 10.66 33 11 C29.7 11.66 26.4 12.32 23 13 C23 13.66 23 14.32 23 15 C22.34 15 21.68 15 21 15 C21.99 16.65 22.98 18.3 24 20 C21.14513315 18.6469618 18.60515991 17.11436401 16.03125 15.28515625 C15.29519531 14.76373047 14.55914062 14.24230469 13.80078125 13.70507812 C13.04152344 13.16302734 12.28226563 12.62097656 11.5 12.0625 C10.36111328 11.25522461 10.36111328 11.25522461 9.19921875 10.43164062 C5.76746449 7.99455419 2.36000895 5.53545826 -1 3 C-0.67 2.01 -0.34 1.02 0 0 Z " fill="#BCFD7D" transform="translate(167,386)"/>
<path d="M0 0 C0.33 0 0.66 0 1 0 C1.37952295 6.19887485 0.8352113 10.4477112 -2 16 C-2.33 14.68 -2.66 13.36 -3 12 C-4.83700789 11.22757731 -4.83700789 11.22757731 -7 11 C-8.64594139 12.39588754 -8.64594139 12.39588754 -10 14 C-10.66 14 -11.32 14 -12 14 C-12 14.66 -12 15.32 -12 16 C-13.98 16.33 -15.96 16.66 -18 17 C-17.525625 16.566875 -17.05125 16.13375 -16.5625 15.6875 C-14.76313043 13.97690387 -14.76313043 13.97690387 -14 11 C-12.68 11 -11.36 11 -10 11 C-9.67 10.01 -9.34 9.02 -9 8 C-7.5188917 6.71207974 -6.03341511 5.42730312 -4.49609375 4.20703125 C-2.89405337 2.95829452 -2.89405337 2.95829452 -1.1875 1.1875 C-0.795625 0.795625 -0.40375 0.40375 0 0 Z " fill="#BCFD80" transform="translate(442,360)"/>
<path d="M0 0 C6.30596952 1.10938353 11.37529486 2.93197901 17 6 C17 6.33 17 6.66 17 7 C15.35 7 13.7 7 12 7 C12 8.32 12 9.64 12 11 C12.639375 11.28875 13.27875 11.5775 13.9375 11.875 C16 13 16 13 17 15 C12.87235084 13.18633597 9.37940795 10.50853382 5.75 7.875 C4.77546875 7.17310547 4.77546875 7.17310547 3.78125 6.45703125 C2.18564517 5.30725718 0.59256975 4.15397434 -1 3 C-0.67 2.01 -0.34 1.02 0 0 Z " fill="#B4FC86" transform="translate(167,386)"/>
<path d="M0 0 C0 0.99 0 1.98 0 3 C-0.66 3 -1.32 3 -2 3 C-1.505 4.98 -1.505 4.98 -1 7 C-1.61875 7.061875 -2.2375 7.12375 -2.875 7.1875 C-5.22545065 7.80524198 -5.22545065 7.80524198 -6.0625 10.25 C-6.371875 11.1575 -6.68125 12.065 -7 13 C-8.5 15.5 -8.5 15.5 -10 18 C-10.66 19.65 -11.32 21.3 -12 23 C-25.86 23 -39.72 23 -54 23 C-54 21.35 -54 19.7 -54 18 C-53.67 19.32 -53.34 20.64 -53 22 C-40.13 21.67 -27.26 21.34 -14 21 C-12.02 16.545 -12.02 16.545 -10 12 C-9.34 12 -8.68 12 -8 12 C-6.92474806 9.34771188 -5.90543849 6.71631546 -5 4 C-4.34 4 -3.68 4 -3 4 C-3 3.34 -3 2.68 -3 2 C-2.01 1.34 -1.02 0.68 0 0 Z " fill="#BAF3C6" transform="translate(214,206)"/>
<path d="M0 0 C0.33 0.99 0.66 1.98 1 3 C0.401875 3.350625 -0.19625 3.70125 -0.8125 4.0625 C-3.80464755 6.71268783 -4.59537051 9.27773184 -6 13 C-6.99 13 -7.98 13 -9 13 C-9 13.66 -9 14.32 -9 15 C-10.32 15.33 -11.64 15.66 -13 16 C-13 16.99 -13 17.98 -13 19 C-15.31 19.99 -17.62 20.98 -20 22 C-16.26080653 13.43921495 -8.03669738 6.86989807 -1 1 C-0.67 0.67 -0.34 0.34 0 0 Z " fill="#B8FD86" transform="translate(99,87)"/>
<path d="M0 0 C2.625 0.375 2.625 0.375 5 1 C2.81385576 3.18614424 1.46120051 3.68256535 -1.4375 4.625 C-2.21996094 4.88539063 -3.00242187 5.14578125 -3.80859375 5.4140625 C-6 6 -6 6 -9 6 C-9 6.66 -9 7.32 -9 8 C-12.50417099 9.51359836 -15.80506823 10.4665349 -19.5625 11.125 C-20.49191406 11.29257812 -21.42132813 11.46015625 -22.37890625 11.6328125 C-25 12 -25 12 -29 12 C-28.67 11.01 -28.34 10.02 -28 9 C-23.05 8.67 -18.1 8.34 -13 8 C-13 7.34 -13 6.68 -13 6 C-12.22914063 5.73445313 -11.45828125 5.46890625 -10.6640625 5.1953125 C-9.66117187 4.84210938 -8.65828125 4.48890625 -7.625 4.125 C-6.62726563 3.77695312 -5.62953125 3.42890625 -4.6015625 3.0703125 C-1.89557882 2.15217498 -1.89557882 2.15217498 0 0 Z " fill="#A2F491" transform="translate(381,396)"/>
<path d="M0 0 C4.37418249 -0.02497996 8.74832563 -0.04299062 13.12255859 -0.05493164 C14.60628992 -0.05991708 16.09001646 -0.06670785 17.57373047 -0.07543945 C40.46427702 -0.20663948 40.46427702 -0.20663948 44.625 3.0625 C45.305625 4.0215625 45.305625 4.0215625 46 5 C40.45665202 4.10107871 40.45665202 4.10107871 37.76757812 3.50585938 C29.75338989 1.81704576 21.97750122 1.76901396 13.8125 1.875 C12.46550153 1.8850607 11.11849569 1.89418103 9.77148438 1.90234375 C6.51412979 1.92569396 3.25716451 1.9584423 0 2 C0 1.34 0 0.68 0 0 Z " fill="#A1EAB4" transform="translate(240,149)"/>
<path d="M0 0 C1.485 0.99 1.485 0.99 3 2 C3.99 2 4.98 2 6 2 C11.24215352 2.74887907 16.59254504 5.99122946 20 10 C14.46640844 9.4943565 10.43969425 8.04383132 5.5625 5.4375 C4.60827148 4.9434668 4.60827148 4.9434668 3.63476562 4.43945312 C2.08505424 3.63546752 0.54181678 2.81902334 -1 2 C-0.67 1.34 -0.34 0.68 0 0 Z " fill="#40BCC0" transform="translate(137,371)"/>
<path d="M0 0 C6.66195827 0.32689812 12.56479663 0.95209855 18.8203125 3.30078125 C22.49358033 4.47912344 26.16542239 4.69566844 30 5 C30 5.66 30 6.32 30 7 C30.66 7.33 31.32 7.66 32 8 C25.42265179 7.30476961 19.07156661 6.02685255 12.625 4.5625 C11.62855469 4.34529297 10.63210937 4.12808594 9.60546875 3.90429688 C8.65542969 3.68966797 7.70539063 3.47503906 6.7265625 3.25390625 C5.86627441 3.06127197 5.00598633 2.8686377 4.11962891 2.67016602 C2 2 2 2 0 0 Z " fill="#9DF294" transform="translate(184,392)"/>
<path d="M0 0 C-0.99 0 -1.98 0 -3 0 C-3.33 0.99 -3.66 1.98 -4 3 C-6.31979381 4.03101947 -8.65429915 5.02936517 -11 6 C-12.0194119 6.98020375 -13.02246356 7.97803008 -14 9 C-16.375 10.0625 -16.375 10.0625 -19 11 C-19.928125 11.37125 -20.85625 11.7425 -21.8125 12.125 C-22.534375 12.41375 -23.25625 12.7025 -24 13 C-23.34 11.35 -22.68 9.7 -22 8 C-20.02 8 -18.04 8 -16 8 C-15.77054688 7.39800781 -15.54109375 6.79601562 -15.3046875 6.17578125 C-13.63641696 3.39366541 -12.01812497 2.60830766 -9.125 1.1875 C-8.26132813 0.74792969 -7.39765625 0.30835937 -6.5078125 -0.14453125 C-3.79276303 -1.07069298 -2.63940258 -1.00051772 0 0 Z " fill="#AAF88A" transform="translate(112,115)"/>
<path d="M0 0 C0.66 0 1.32 0 2 0 C4 3 4 3 4 7 C4.66 7 5.32 7 6 7 C7.32647605 10.0148822 8.63356202 13.03780968 9.9375 16.0625 C10.31068359 16.91005859 10.68386719 17.75761719 11.06835938 18.63085938 C13.14635973 23.47952688 14.55002713 27.73603166 15 33 C12.20394727 30.20394727 11.17894529 26.80440739 9.75 23.1875 C7.04810251 16.46888173 4.16876648 9.88867707 1.06640625 3.34375 C0 1 0 1 0 0 Z " fill="#3EB6AE" transform="translate(419,227)"/>
<path d="M0 0 C0.99 0 1.98 0 3 0 C0.81812891 7.73572478 -3.45968561 14.44176811 -8 21 C-8.66 19.68 -9.32 18.36 -10 17 C-9.34 16.34 -8.68 15.68 -8 15 C-7.30251417 13.68252676 -6.63040043 12.35085807 -6 11 C-5.01 11 -4.02 11 -3 11 C-3.061875 10.113125 -3.12375 9.22625 -3.1875 8.3125 C-2.97848561 4.61991248 -2.28528899 2.87777132 0 0 Z " fill="#BCFC8F" transform="translate(436,376)"/>
<path d="M0 0 C1.67910441 5.03731323 -0.85168367 9.33212854 -3 14 C-5.87266957 18.7356707 -8.97042279 23.17863803 -13 27 C-12.6201758 21.55585309 -10.92596452 19.64553848 -7 16 C-4.8369664 13.03584285 -3.77564741 10.4016664 -2.9375 6.875 C-2 3 -2 3 0 0 Z " fill="#A5EBB5" transform="translate(312,261)"/>
<path d="M0 0 C0.99 0.33 1.98 0.66 3 1 C2.34 1 1.68 1 1 1 C1 1.66 1 2.32 1 3 C0.34 3 -0.32 3 -1 3 C-1.10824843 4.6026782 -1.18570645 6.20745748 -1.25 7.8125 C-1.29640625 8.70582031 -1.3428125 9.59914062 -1.390625 10.51953125 C-1.22320847 13.10756207 -1.22320847 13.10756207 0.71875 14.8125 C3.31338421 16.16313151 4.84934018 16.31547029 7.75 16.1875 C8.94882812 16.14689453 8.94882812 16.14689453 10.171875 16.10546875 C11.07679688 16.05326172 11.07679688 16.05326172 12 16 C12.33 15.01 12.66 14.02 13 13 C13.33 13.66 13.66 14.32 14 15 C11.94766315 17.2477975 10.99332739 18.0022242 8 19 C5.73828125 18.87890625 5.73828125 18.87890625 3.3125 18.5625 C2.50425781 18.46066406 1.69601562 18.35882813 0.86328125 18.25390625 C0.24839844 18.17011719 -0.36648438 18.08632813 -1 18 C-1 17.01 -1 16.02 -1 15 C-1.66 15 -2.32 15 -3 15 C-4.61050328 5.98468271 -4.61050328 5.98468271 -2.0625 1.875 C-1.0415625 0.946875 -1.0415625 0.946875 0 0 Z " fill="#A0EAB1" transform="translate(275,245)"/>
<path d="M0 0 C2.0625 0.4375 2.0625 0.4375 4 1 C1.73243277 2.65050138 -0.53878961 4.29550028 -2.8125 5.9375 C-3.45509766 6.40607422 -4.09769531 6.87464844 -4.75976562 7.35742188 C-5.38173828 7.80537109 -6.00371094 8.25332031 -6.64453125 8.71484375 C-7.21534424 9.12855225 -7.78615723 9.54226074 -8.37426758 9.96850586 C-10 11 -10 11 -13 12 C-13 12.66 -13 13.32 -13 14 C-15.5 15.625 -15.5 15.625 -18 17 C-17.68954049 13.9024608 -16.95547259 12.95689209 -14.671875 10.74609375 C-13.70765625 9.98425781 -12.7434375 9.22242188 -11.75 8.4375 C-10.79609375 7.67308594 -9.8421875 6.90867188 -8.859375 6.12109375 C-6.31111285 4.23078453 -3.73720954 2.59670557 -1 1 C-0.67 0.67 -0.34 0.34 0 0 Z " fill="#A5EAB2" transform="translate(203,162)"/>
<path d="M0 0 C2.375 1 2.375 1 4 2 C4 2.66 4 3.32 4 4 C0.37 3.34 -3.26 2.68 -7 2 C-7 2.66 -7 3.32 -7 4 C-7.66 4 -8.32 4 -9 4 C-8.68950274 5.43793392 -8.3765224 6.8753318 -8.0625 8.3125 C-7.88847656 9.11300781 -7.71445312 9.91351563 -7.53515625 10.73828125 C-7.00113841 13.145401 -7.00113841 13.145401 -6 16 C-9.875 14.125 -9.875 14.125 -11 13 C-11.23880597 5.47761194 -11.23880597 5.47761194 -10 3 C-9.34 3 -8.68 3 -8 3 C-8 2.34 -8 1.68 -8 1 C-5.2201184 -0.3899408 -3.0813674 -0.18488204 0 0 Z " fill="#DFFDE5" transform="translate(284,245)"/>
<path d="M0 0 C4.91935902 4.11619836 9.52647956 8.40410362 14 13 C13.01 13 12.02 13 11 13 C9.515 13.12375 9.515 13.12375 8 13.25 C5 13 5 13 3.125 11 C2.75375 10.34 2.3825 9.68 2 9 C2.99 8.67 3.98 8.34 5 8 C4.175 7.05125 3.35 6.1025 2.5 5.125 C0 2.25 0 2.25 0 0 Z " fill="#38B5B2" transform="translate(135,361)"/>
<path d="M0 0 C0.33 0 0.66 0 1 0 C1 1.65 1 3.3 1 5 C0.01 5.33 -0.98 5.66 -2 6 C-2.73323796 8.01508358 -2.73323796 8.01508358 -3 10 C-3.66 10 -4.32 10 -5 10 C-5 10.99 -5 11.98 -5 13 C-7.25 15.4375 -7.25 15.4375 -10 18 C-10.763125 18.763125 -11.52625 19.52625 -12.3125 20.3125 C-12.869375 20.869375 -13.42625 21.42625 -14 22 C-14.66 21.67 -15.32 21.34 -16 21 C-13.49668911 17.78145742 -10.87931273 14.87931273 -8 12 C-4.74828856 8.24020864 -2.38186937 4.33840493 0 0 Z " fill="#A7EBB6" transform="translate(341,296)"/>
<path d="M0 0 C1.46726798 3.81489674 0.43336419 6.29011622 -1 10 C2.8373228 7.50127818 6.45960866 4.9156164 10 2 C10.66 2.33 11.32 2.66 12 3 C10.21371169 4.67277835 8.4214925 6.33824443 6.625 8 C5.86316406 8.71542969 5.86316406 8.71542969 5.0859375 9.4453125 C1.2265625 13 1.2265625 13 -1 13 C-1.33 13.66 -1.66 14.32 -2 15 C-2.33 14.67 -2.66 14.34 -3 14 C-2.57731286 9.01229179 -1.7672875 4.71276667 0 0 Z " fill="#A0F59C" transform="translate(64,134)"/>
<path d="M0 0 C0.66 0.33 1.32 0.66 2 1 C1.24172908 2.17487036 0.46792245 3.33972592 -0.3125 4.5 C-0.74175781 5.1496875 -1.17101562 5.799375 -1.61328125 6.46875 C-2.07089844 6.9740625 -2.52851563 7.479375 -3 8 C-3.99 8 -4.98 8 -6 8 C-6.66 9.65 -7.32 11.3 -8 13 C-8.66 13 -9.32 13 -10 13 C-10 13.66 -10 14.32 -10 15 C-11.98 15.33 -13.96 15.66 -16 16 C-15.525625 15.566875 -15.05125 15.13375 -14.5625 14.6875 C-12.76313043 12.97690387 -12.76313043 12.97690387 -12 10 C-10.68 10 -9.36 10 -8 10 C-7.67 9.01 -7.34 8.02 -7 7 C-5.02043058 5.30911778 -3.02054804 3.64169528 -1 2 C-0.67 1.34 -0.34 0.68 0 0 Z " fill="#AEF987" transform="translate(440,361)"/>
<path d="M0 0 C0.66 0 1.32 0 2 0 C2.33 0.99 2.66 1.98 3 3 C9.6 3 16.2 3 23 3 C23 3.33 23 3.66 23 4 C15.04579145 5.67968453 8.05686696 6.1736381 0 5 C-0.33 4.01 -0.66 3.02 -1 2 C-0.67 1.34 -0.34 0.68 0 0 Z " fill="#E4FDEA" transform="translate(142,346)"/>
<path d="M0 0 C5.53846154 -0.36923077 5.53846154 -0.36923077 7.875 1.5 C8.24625 1.995 8.6175 2.49 9 3 C7.046875 2.93489583 5.09375 2.86979167 3.140625 2.8046875 C0.57815832 2.90751009 0.57815832 2.90751009 -3 5 C-3 8.63 -3 12.26 -3 16 C-3.99 15.34 -4.98 14.68 -6 14 C-5.91253716 12.56138706 -5.80434652 11.12402492 -5.6875 9.6875 C-5.62949219 8.88699219 -5.57148438 8.08648437 -5.51171875 7.26171875 C-4.91161175 4.60933741 -4.14291033 3.63496121 -2 2 C-1.34 2 -0.68 2 0 2 C0 1.34 0 0.68 0 0 Z " fill="#A1E9B0" transform="translate(252,243)"/>
<path d="M0 0 C2.32125169 3.48187753 3.15122685 6.87171039 4.125 10.875 C4.30675781 11.58269531 4.48851562 12.29039062 4.67578125 13.01953125 C5.59922489 16.74802173 6.22613309 20.1557375 6 24 C5.34 24 4.68 24 4 24 C4 22.02 4 20.04 4 18 C3.34 18 2.68 18 2 18 C1.93941406 17.30132812 1.87882812 16.60265625 1.81640625 15.8828125 C1.73261719 14.97273438 1.64882813 14.06265625 1.5625 13.125 C1.48128906 12.22007812 1.40007812 11.31515625 1.31640625 10.3828125 C1.13010715 7.98889139 1.13010715 7.98889139 0 6 C-0.039992 4.00039988 -0.04346799 1.99952758 0 0 Z " fill="#81E9B8" transform="translate(439,280)"/>
<path d="M0 0 C2.97 0.495 2.97 0.495 6 1 C6 1.66 6 2.32 6 3 C6.99 3.33 7.98 3.66 9 4 C9.33 5.65 9.66 7.3 10 9 C10.99 9 11.98 9 13 9 C12.67 9.99 12.34 10.98 12 12 C6.63885521 8.53102396 3.46897604 5.36114479 0 0 Z " fill="#3DB7B1" transform="translate(363,152)"/>
<path d="M0 0 C5.99932374 1.8331267 11.44920563 4.07321751 17 7 C13.90226756 7.84062397 11.21667249 8.08935201 8 8 C8 7.01 8 6.02 8 5 C6.02 5 4.04 5 2 5 C2 4.34 2 3.68 2 3 C1.01 3.33 0.02 3.66 -1 4 C-0.67 2.68 -0.34 1.36 0 0 Z " fill="#BCFD8F" transform="translate(250,71)"/>
<path d="M0 0 C0.33 0 0.66 0 1 0 C1.33 8.91 1.66 17.82 2 27 C1.34 27 0.68 27 0 27 C0 28.65 0 30.3 0 32 C-0.33 32 -0.66 32 -1 32 C-0.67 21.44 -0.34 10.88 0 0 Z " fill="#40B8AD" transform="translate(448,320)"/>
<path d="M0 0 C2.81191561 2.81191561 3.53516103 6.16519078 4.6875 9.875 C4.92533203 10.59558594 5.16316406 11.31617188 5.40820312 12.05859375 C6.58394389 15.80303502 7.1851875 18.25823079 6 22 C5.34 22 4.68 22 4 22 C3.96261719 21.3709375 3.92523438 20.741875 3.88671875 20.09375 C3.54784471 15.68174288 3.08866237 11.75290592 1.4375 7.625 C0 4 0 4 0 0 Z " fill="#7BE9B7" transform="translate(432,258)"/>
<path d="M0 0 C1.67299959 0.65061095 3.33859237 1.32033324 5 2 C5.680625 2.268125 6.36125 2.53625 7.0625 2.8125 C9.67514159 4.41379646 11.14473964 6.58816153 13 9 C13.66 9.33 14.32 9.66 15 10 C14.67 10.66 14.34 11.32 14 12 C11.85050462 10.37965717 9.7053859 8.75404206 7.5625 7.125 C6.95083984 6.66480469 6.33917969 6.20460938 5.70898438 5.73046875 C1.11328125 2.2265625 1.11328125 2.2265625 0 0 Z " fill="#3CB6B0" transform="translate(313,107)"/>
<path d="M0 0 C0 0.66 0 1.32 0 2 C-0.66 2 -1.32 2 -2 2 C-1.67 3.65 -1.34 5.3 -1 7 C-2.32 7.33 -3.64 7.66 -5 8 C-4.67 7.01 -4.34 6.02 -4 5 C-6.64 5.33 -9.28 5.66 -12 6 C-8.59780735 3.25207517 -4.51535412 0 0 0 Z " fill="#BAFD89" transform="translate(129,69)"/>
<path d="M0 0 C-3.53105961 3.32597281 -6.50235535 3.46770164 -11.25 3.6875 C-12.51328125 3.75324219 -13.7765625 3.81898437 -15.078125 3.88671875 C-16.52445313 3.94279297 -16.52445313 3.94279297 -18 4 C-15.06836714 2.44596314 -12.16634776 1.30198368 -9 0.3125 C-8.154375 0.04050781 -7.30875 -0.23148437 -6.4375 -0.51171875 C-3.8767932 -1.02468085 -2.44171002 -0.84216387 0 0 Z " fill="#9DF293" transform="translate(156,101)"/>
<path d="M0 0 C0.66 0.33 1.32 0.66 2 1 C0.625 3.5 0.625 3.5 -1 6 C-1.66 6 -2.32 6 -3 6 C-3.99 8.97 -4.98 11.94 -6 15 C-6.99 15 -7.98 15 -9 15 C-7.88222229 12.68374939 -6.75625908 10.37215395 -5.625 8.0625 C-5.30789062 7.40314453 -4.99078125 6.74378906 -4.6640625 6.06445312 C-2.2265625 1.11328125 -2.2265625 1.11328125 0 0 Z " fill="#E5FDEC" transform="translate(207,212)"/>
<path d="M0 0 C4.42091465 0.49121274 5.96588491 1.87106881 9 5 C11.63222962 6.25436187 11.63222962 6.25436187 14 7 C14 7.99 14 8.98 14 10 C10.19136032 8.65378455 7.34590149 6.94641263 4.1875 4.4375 C3.39730469 3.81746094 2.60710937 3.19742187 1.79296875 2.55859375 C0.90544922 1.78708984 0.90544922 1.78708984 0 1 C0 0.67 0 0.34 0 0 Z " fill="#A7EAB5" transform="translate(216,291)"/>
<path d="M0 0 C1 2 1 2 0.375 5 C-1 8 -1 8 -3.4375 9.5 C-6 10 -6 10 -9 8 C-8.51789063 7.67386719 -8.03578125 7.34773438 -7.5390625 7.01171875 C-6.90742188 6.57472656 -6.27578125 6.13773437 -5.625 5.6875 C-4.99851563 5.25824219 -4.37203125 4.82898438 -3.7265625 4.38671875 C-1.73621155 2.93079661 -1.73621155 2.93079661 0 0 Z " fill="#A9ECB9" transform="translate(198,333)"/>
<path d="M0 0 C2.46140365 2.46140365 3.30326986 4.78456293 4.625 8 C5.07101563 9.0725 5.51703125 10.145 5.9765625 11.25 C7 14 7 14 7 16 C6.34 16 5.68 16 5 16 C1.91532502 10.60540561 0.44356295 6.20988129 0 0 Z " fill="#43B9AE" transform="translate(72,268)"/>
<path d="M0 0 C-1.57347176 1.035969 -3.15921546 2.05331732 -4.75 3.0625 C-5.63171875 3.63097656 -6.5134375 4.19945312 -7.421875 4.78515625 C-10 6 -10 6 -12.328125 5.68359375 C-13.15570313 5.34521484 -13.15570313 5.34521484 -14 5 C-5.5985874 -1.78575633 -5.5985874 -1.78575633 0 0 Z " fill="#A7EDB6" transform="translate(238,193)"/>
<path d="M0 0 C2.96909598 3.27301919 3.34354794 5.38065762 3.1875 9.75 C3.14689453 11.22726562 3.14689453 11.22726562 3.10546875 12.734375 C3.07066406 13.48203125 3.03585937 14.2296875 3 15 C-1.42857143 6.14285714 -1.42857143 6.14285714 0 0 Z " fill="#3CB2B7" transform="translate(435,258)"/>
<path d="M0 0 C0.33 0 0.66 0 1 0 C2.69832609 5.83799592 3.25287193 10.93107371 3 17 C2.67 17 2.34 17 2 17 C1.46585888 15.10787298 0.94821671 13.21108364 0.4375 11.3125 C0.14746094 10.25675781 -0.14257812 9.20101562 -0.44140625 8.11328125 C-1.00124767 4.99304618 -0.84690764 3.02306766 0 0 Z " fill="#85EDB6" transform="translate(66,239)"/>
<path d="M0 0 C0.53625 0.226875 1.0725 0.45375 1.625 0.6875 C0.635 0.6875 -0.355 0.6875 -1.375 0.6875 C-1.705 1.6775 -2.035 2.6675 -2.375 3.6875 C-4.58984375 4.890625 -4.58984375 4.890625 -7.3125 5.9375 C-8.65634766 6.47117187 -8.65634766 6.47117187 -10.02734375 7.015625 C-12.375 7.6875 -12.375 7.6875 -14.375 6.6875 C-3.93902439 -0.51829268 -3.93902439 -0.51829268 0 0 Z " fill="#B2FC84" transform="translate(110.375,114.3125)"/>
<path d="M0 0 C1.47906892 -0.02689216 2.95827483 -0.04634621 4.4375 -0.0625 C5.26121094 -0.07410156 6.08492188 -0.08570313 6.93359375 -0.09765625 C9 0 9 0 10 1 C12.32817964 1.36760731 14.6618385 1.70241581 17 2 C17 2.66 17 3.32 17 4 C11.147205 3.48517081 5.6702363 2.54642808 0 1 C0 0.67 0 0.34 0 0 Z " fill="#B9FE9A" transform="translate(266,439)"/>
<path d="M0 0 C-0.5671875 0.2784375 -1.134375 0.556875 -1.71875 0.84375 C-4.01419056 2.00719248 -6.25634472 3.23986484 -8.5 4.5 C-11.30179446 6.07361059 -14.11519813 7.58382453 -17 9 C-17 8.34 -17 7.68 -17 7 C-16.34 7 -15.68 7 -15 7 C-15 6.34 -15 5.68 -15 5 C-13.44424022 4.15415002 -11.8800388 3.32381601 -10.3125 2.5 C-9.44238281 2.0359375 -8.57226562 1.571875 -7.67578125 1.09375 C-4.88211171 -0.04818792 -2.98370887 -0.21504208 0 0 Z " fill="#E7FEEA" transform="translate(238,191)"/>
<path d="M0 0 C2.08218362 -0.10832169 4.16599129 -0.18573541 6.25 -0.25 C7.99023438 -0.31960937 7.99023438 -0.31960937 9.765625 -0.390625 C13.57666013 0.06964494 14.65511755 1.05148444 17 4 C11.31900211 3.0787571 5.66064984 2.03745006 0 1 C0 0.67 0 0.34 0 0 Z " fill="#A9EDBA" transform="translate(269,150)"/>
<path d="M0 0 C0 2.33333333 0 4.66666667 0 7 C-0.99 7.495 -0.99 7.495 -2 8 C-2 8.66 -2 9.32 -2 10 C-3.65 10.66 -5.3 11.32 -7 12 C-5.44298069 7.32894208 -2.91552627 3.91294315 0 0 Z " fill="#B7FD92" transform="translate(78,109)"/>
<path d="M0 0 C2.31 0 4.62 0 7 0 C4.74402173 2.25597827 2.95396133 2.96574192 0 4.125 C-0.886875 4.47820312 -1.77375 4.83140625 -2.6875 5.1953125 C-5 6 -5 6 -7 6 C-7 5.34 -7 4.68 -7 4 C-5.68 4 -4.36 4 -3 4 C-3 3.34 -3 2.68 -3 2 C-2.01 2 -1.02 2 0 2 C0 1.34 0 0.68 0 0 Z " fill="#BCFD97" transform="translate(375,435)"/>
<path d="M0 0 C-2.62890497 1.39073768 -5.12122047 2.43969204 -8 3.1875 C-8.66 3.36667969 -9.32 3.54585938 -10 3.73046875 C-12.26540976 4.03576811 -13.835092 3.68136613 -16 3 C-10.4477112 0.1647887 -6.19887485 -0.37952295 0 0 Z " fill="#B6FE84" transform="translate(160,98)"/>
<path d="M0 0 C0.66 0.33 1.32 0.66 2 1 C0.44632634 2.01365893 -1.11837836 3.01042256 -2.6875 4 C-3.99267578 4.8353125 -3.99267578 4.8353125 -5.32421875 5.6875 C-8.16973337 7.08325608 -9.8788594 7.26993648 -13 7 C-9.93882432 4.37613513 -9.26826873 4 -5 4 C-5 3.34 -5 2.68 -5 2 C-2.625 0.9375 -2.625 0.9375 0 0 Z " fill="#B2FC82" transform="translate(397,392)"/>
<path d="M0 0 C3.32643967 2.98232523 5.29152862 5.86370087 7 10 C6.67 10.66 6.34 11.32 6 12 C2.28930302 8.00386479 0.40208382 5.62917348 0 0 Z " fill="#ABEDBB" transform="translate(303,213)"/>
<path d="M0 0 C3.59391114 1.33488128 6.75490696 2.96022723 10 5 C7 7 7 7 4.3125 6.625 C3.549375 6.41875 2.78625 6.2125 2 6 C1.855625 5.38125 1.71125 4.7625 1.5625 4.125 C1.06847775 1.96741678 1.06847775 1.96741678 0 0 Z " fill="#38BACD" transform="translate(365,128)"/>
<path d="M0 0 C-1.38530129 3.42717768 -2.67477227 4.7293493 -6 6.3125 C-6.70125 6.65925781 -7.4025 7.00601563 -8.125 7.36328125 C-9.053125 7.67845703 -9.053125 7.67845703 -10 8 C-10.66 7.67 -11.32 7.34 -12 7 C-10.3790787 5.82767315 -8.75313167 4.6622923 -7.125 3.5 C-6.22007813 2.8503125 -5.31515625 2.200625 -4.3828125 1.53125 C-2 0 -2 0 0 0 Z " fill="#9DF292" transform="translate(88,128)"/>
<path d="M0 0 C0.66 0 1.32 0 2 0 C2.2506019 1.41303238 2.47461921 2.83079474 2.6875 4.25 C2.81511719 5.03890625 2.94273437 5.8278125 3.07421875 6.640625 C3 9 3 9 0 13 C0 8.71 0 4.42 0 0 Z " fill="#82EBBA" transform="translate(445,344)"/>
<path d="M0 0 C0.66 0 1.32 0 2 0 C0.68 5.28 -0.64 10.56 -2 16 C-2.33 16 -2.66 16 -3 16 C-3.37851209 10.06997733 -2.10575375 5.52760359 0 0 Z " fill="#A6ECB3" transform="translate(162,212)"/>
<path d="M0 0 C0.8125 1.625 0.8125 1.625 1 4 C-0.46818136 6.24609835 -2.15852858 8.02378677 -4 10 C-5 7 -5 7 -5 5 C-4.34 5 -3.68 5 -3 5 C-2.5359375 4.0409375 -2.5359375 4.0409375 -2.0625 3.0625 C-1 1 -1 1 0 0 Z " fill="#9CEDAA" transform="translate(184,176)"/>
<path d="M0 0 C-2.21368294 2.21368294 -3.93016625 3.86552921 -7.11328125 4.265625 C-9.07746787 4.25166986 -11.0402625 4.13286356 -13 4 C-10.56272708 2.37515139 -8.62713877 1.34310925 -5.9375 0.3125 C-5.24527344 0.04050781 -4.55304688 -0.23148437 -3.83984375 -0.51171875 C-2 -1 -2 -1 0 0 Z " fill="#ABEDB8" transform="translate(298,338)"/>
<path d="M0 0 C2.875 -0.4375 2.875 -0.4375 6 0 C8.375 2 8.375 2 10 4 C9.01 4 8.02 4 7 4 C7 3.34 7 2.68 7 2 C2.545 2.495 2.545 2.495 -2 3 C-1.34 2.01 -0.68 1.02 0 0 Z " fill="#E5FEEA" transform="translate(253,245)"/>
<path d="M0 0 C0.66 0 1.32 0 2 0 C0.59257936 3.51855159 -0.66466523 4.38612834 -4 6 C-4.33 6.99 -4.66 7.98 -5 9 C-5.99 8.67 -6.98 8.34 -8 8 C-7.0479279 6.99403703 -6.08812654 5.99538437 -5.125 5 C-4.59132812 4.443125 -4.05765625 3.88625 -3.5078125 3.3125 C-2 2 -2 2 0 2 C0 1.34 0 0.68 0 0 Z " fill="#DFFCE6" transform="translate(190,174)"/>
<path d="M0 0 C1.98 1.65 3.96 3.3 6 5 C3.6921509 6.15392455 1.52769669 6.53437166 -1 7 C-1 3 -1 3 0 0 Z " fill="#89EDB1" transform="translate(370,160)"/>
<path d="M0 0 C4.3177458 0.50797009 8.03302114 1.19682779 12 3 C11.34 3.66 10.68 4.32 10 5 C6.84005649 4.56414572 3.88838382 3.32709527 1 2 C0.67 1.34 0.34 0.68 0 0 Z " fill="#38BCC9" transform="translate(315,107)"/>
<path d="M0 0 C-1.44390925 3.80666984 -3.34952803 5.26602582 -7 7 C-7.66 6.67 -8.32 6.34 -9 6 C-7.8803014 4.99406757 -6.7540588 3.9954151 -5.625 3 C-4.68527344 2.1646875 -4.68527344 2.1646875 -3.7265625 1.3125 C-2 0 -2 0 0 0 Z " fill="#A4EBB3" transform="translate(224,199)"/>
<path d="M0 0 C4.455 2.97 4.455 2.97 9 6 C8.01 6.66 7.02 7.32 6 8 C5.34 7.67 4.68 7.34 4 7 C4 6.34 4 5.68 4 5 C3.34 5 2.68 5 2 5 C1.34 3.35 0.68 1.7 0 0 Z " fill="#39BBCC" transform="translate(389,143)"/>
<path d="M0 0 C0.99 1.32 1.98 2.64 3 4 C2.01 4.66 1.02 5.32 0 6 C-1.65 4.68 -3.3 3.36 -5 2 C-3.35 1.34 -1.7 0.68 0 0 Z " fill="#38B8CC" transform="translate(125,361)"/>
<path d="M0 0 C-2.54631035 2.97069541 -5.42230149 4.4775751 -9 6 C-9.66 5.67 -10.32 5.34 -11 5 C-4.85714286 -0.71428571 -4.85714286 -0.71428571 0 0 Z " fill="#E9FFEE" transform="translate(305,332)"/>
<path d="M0 0 C2 1 2 1 4 3 C4.36933645 5.75372909 4.18336678 8.20365661 4 11 C1.55160412 7.32740617 0 4.45351799 0 0 Z " fill="#87F0B2" transform="translate(71,262)"/>
<path d="M0 0 C0.99 0.33 1.98 0.66 3 1 C2.0479279 2.00596297 1.08812654 3.00461563 0.125 4 C-0.40867188 4.556875 -0.94234375 5.11375 -1.4921875 5.6875 C-3 7 -3 7 -5 7 C-5.33 7.66 -5.66 8.32 -6 9 C-5.6875 7.0625 -5.6875 7.0625 -5 5 C-4.01 4.67 -3.02 4.34 -2 4 C-0.79117904 1.99983534 -0.79117904 1.99983534 0 0 Z " fill="#E7FEE9" transform="translate(216,201)"/>
<path d="M0 0 C1.65 0.33 3.3 0.66 5 1 C3.35 2.98 1.7 4.96 0 7 C-0.33 6.34 -0.66 5.68 -1 5 C-1.66 4.67 -2.32 4.34 -3 4 C-2.01 4 -1.02 4 0 4 C0 2.68 0 1.36 0 0 Z " fill="#B7FE8D" transform="translate(412,408)"/>
<path d="M0 0 C2.16874252 0.50603992 3.99967627 0.99983813 6 2 C6 3.65 6 5.3 6 7 C1.125 3.375 1.125 3.375 0 0 Z " fill="#89EDB7" transform="translate(112,336)"/>
<path d="M0 0 C0 3 0 3 -1.53125 4.60546875 C-2.1809375 5.12753906 -2.830625 5.64960938 -3.5 6.1875 C-4.1496875 6.71730469 -4.799375 7.24710937 -5.46875 7.79296875 C-5.9740625 8.19128906 -6.479375 8.58960938 -7 9 C-7.66 8.67 -8.32 8.34 -9 8 C-7.625 6.5 -7.625 6.5 -6 5 C-5.34 5 -4.68 5 -4 5 C-3.67 4.01 -3.34 3.02 -3 2 C-2.01 1.34 -1.02 0.68 0 0 Z " fill="#ABEFB9" transform="translate(324,318)"/>
<path d="M0 0 C0.33 0.99 0.66 1.98 1 3 C-0.21484375 4.82421875 -0.21484375 4.82421875 -1.9375 6.6875 C-2.50339844 7.31011719 -3.06929688 7.93273437 -3.65234375 8.57421875 C-4.09707031 9.04472656 -4.54179687 9.51523437 -5 10 C-5.66 9.67 -6.32 9.34 -7 9 C-4.69 6.03 -2.38 3.06 0 0 Z " fill="#E4FDEB" transform="translate(305,280)"/>
<path d="M0 0 C0.66 0 1.32 0 2 0 C3.75747614 4.50353262 4.19294408 8.17639811 4 13 C2.42445965 10.11371599 1.53723627 7.46657616 0.875 4.25 C0.70742188 3.45078125 0.53984375 2.6515625 0.3671875 1.828125 C0.24601562 1.22484375 0.12484375 0.6215625 0 0 Z " fill="#A7EBB5" transform="translate(349,217)"/>
<path d="M0 0 C2.38672669 2.96283313 4.7353371 5.94270509 7 9 C6.67 9.66 6.34 10.32 6 11 C5.731875 10.360625 5.46375 9.72125 5.1875 9.0625 C4.11332248 6.66868314 4.11332248 6.66868314 1 6 C0.67 4.02 0.34 2.04 0 0 Z " fill="#80EBB9" transform="translate(395,189)"/>
<path d="M0 0 C2.64 0 5.28 0 8 0 C8.66 1.32 9.32 2.64 10 4 C6.7 3.01 3.4 2.02 0 1 C0 0.67 0 0.34 0 0 Z " fill="#A6EDB6" transform="translate(286,154)"/>
<path d="M0 0 C0 0.66 0 1.32 0 2 C0.66 2.33 1.32 2.66 2 3 C0.71211992 3.53012738 -0.58046678 4.0488329 -1.875 4.5625 C-2.95394531 4.99755859 -2.95394531 4.99755859 -4.0546875 5.44140625 C-6 6 -6 6 -8 5 C-2.25 0 -2.25 0 0 0 Z " fill="#B9FD8F" transform="translate(108,81)"/>
<path d="M0 0 C1.65 0 3.3 0 5 0 C4.625 1.9375 4.625 1.9375 4 4 C3.01 4.495 3.01 4.495 2 5 C1.34 4.67 0.68 4.34 0 4 C0 2.68 0 1.36 0 0 Z " fill="#C2FD6D" transform="translate(179,393)"/>
<path d="M0 0 C2.61500768 2.36595933 4.38999603 4.86049226 6 8 C5.67 8.66 5.34 9.32 5 10 C4.34 10 3.68 10 3 10 C2.49596232 8.70990357 1.99690074 7.41786211 1.5 6.125 C1.2215625 5.40570313 0.943125 4.68640625 0.65625 3.9453125 C0 2 0 2 0 0 Z " fill="#3DB6AE" transform="translate(87,301)"/>
<path d="M0 0 C-2.64 1.98 -5.28 3.96 -8 6 C-8 4.68 -8 3.36 -8 2 C-3.82258065 -1.27419355 -3.82258065 -1.27419355 0 0 Z " fill="#A6EBB4" transform="translate(299,289)"/>
<path d="M0 0 C-2.70188004 1.80125336 -4.93057703 3.00243753 -8 4 C-8.99 3.67 -9.98 3.34 -11 3 C-7.48550811 -0.37391222 -4.73940561 -0.27342725 0 0 Z " fill="#B3FC86" transform="translate(128,108)"/>
<path d="M0 0 C0.99 0.33 1.98 0.66 3 1 C3.33 2.98 3.66 4.96 4 7 C2.02 5.35 0.04 3.7 -2 2 C-1.34 1.34 -0.68 0.68 0 0 Z " fill="#8FEFB5" transform="translate(132,354)"/>
<path d="M0 0 C0.33 0.66 0.66 1.32 1 2 C0.22265625 3.7265625 0.22265625 3.7265625 -0.9375 5.625 C-1.618125 6.73875 -2.29875 7.8525 -3 9 C-3.66 8.01 -4.32 7.02 -5 6 C-3.74821404 3.49642808 -2.00018842 1.93566621 0 0 Z " fill="#A1EBB4" transform="translate(158,326)"/>
<path d="M0 0 C2.76223278 2.76223278 2.57856291 5.20706617 3 9 C2.01 9 1.02 9 0 9 C0 6.03 0 3.06 0 0 Z " fill="#87EEB7" transform="translate(436,271)"/>
<path d="M0 0 C2.45823172 3.68734758 3.01242616 6.69699971 4 11 C2.68 10.34 1.36 9.68 0 9 C0 6.03 0 3.06 0 0 Z " fill="#40B8B2" transform="translate(68,256)"/>
<path d="M0 0 C6.52307692 0.49230769 6.52307692 0.49230769 8.9375 3.0625 C9.288125 3.701875 9.63875 4.34125 10 5 C6.08788267 3.84414715 3.1254959 2.64465038 0 0 Z " fill="#EAFEE8" transform="translate(229,245)"/>
<path d="M0 0 C2.96052484 3.36423277 3.92289822 6.69159287 5 11 C1.87729874 8.48169253 1.05476902 7.2738451 0.25 3.25 C0.1675 2.1775 0.085 1.105 0 0 Z " fill="#80EAB5" transform="translate(424,239)"/>
<path d="M0 0 C1.98 0 3.96 0 6 0 C6.66 1.98 7.32 3.96 8 6 C4.63408134 4.55746343 2.48952921 2.66735273 0 0 Z " fill="#BCFE96" transform="translate(169,390)"/>
<path d="M0 0 C1.485 0.99 1.485 0.99 3 2 C3.66 1.67 4.32 1.34 5 1 C5 1.66 5 2.32 5 3 C5.66 3 6.32 3 7 3 C7.33 3.99 7.66 4.98 8 6 C4.22454612 4.90931332 1.52956528 4.0916909 -1 1 C-0.67 0.67 -0.34 0.34 0 0 Z " fill="#40C2D0" transform="translate(137,371)"/>
<path d="M0 0 C2.29013653 3.4352048 2.17842973 4.985331 2 9 C-2 4.25 -2 4.25 -2 2 C-1.34 2 -0.68 2 0 2 C0 1.34 0 0.68 0 0 Z " fill="#88EBB5" transform="translate(92,302)"/>
<path d="M0 0 C1.65 1.65 3.3 3.3 5 5 C3.02 5.33 1.04 5.66 -1 6 C-0.67 4.02 -0.34 2.04 0 0 Z " fill="#88EFAD" transform="translate(363,153)"/>
<path d="M0 0 C2.475 0.495 2.475 0.495 5 1 C5 1.66 5 2.32 5 3 C5.66 3 6.32 3 7 3 C6.67 3.99 6.34 4.98 6 6 C3.19824644 4.13216429 1.88807863 2.69725519 0 0 Z " fill="#8AF1BA" transform="translate(153,377)"/>
<path d="M0 0 C1.65 0 3.3 0 5 0 C4.01 0.495 4.01 0.495 3 1 C3 2.65 3 4.3 3 6 C2.01 5.67 1.02 5.34 0 5 C0 3.35 0 1.7 0 0 Z " fill="#A5EAB0" transform="translate(139,345)"/>
<path d="M0 0 C0 3 0 3 -2 5.1875 C-2.66 5.785625 -3.32 6.38375 -4 7 C-4 5.35 -4 3.7 -4 2 C-2.68 1.34 -1.36 0.68 0 0 Z " fill="#3EBECA" transform="translate(452,345)"/>
<path d="M0 0 C0 0.99 0 1.98 0 3 C-2.64 3.66 -5.28 4.32 -8 5 C-3.22727273 0 -3.22727273 0 0 0 Z " fill="#B7FE93" transform="translate(117,75)"/>
</svg>
